<svg xmlns="http://www.w3.org/2000/svg" width="500" height="500" viewBox="0 0 500 500" version="1.1"><path d="M 258 272 L 258 285 255 285 C 253.350 285, 252 285.450, 252 286 C 252 286.550, 253.800 287, 256 287 L 260 287 260 273 C 260 264.333, 259.619 259, 259 259 C 258.385 259, 258 264, 258 272 M 214.207 269.175 C 208.014 278.103, 207.346 279.617, 210.107 278.466 C 211.960 277.694, 222 263.348, 222 261.472 C 222 258.642, 220.453 260.171, 214.207 269.175 M 197.500 266 C 197.840 266.550, 199.640 267, 201.500 267 C 203.360 267, 205.160 266.550, 205.500 266 C 205.878 265.388, 204.324 265, 201.500 265 C 198.676 265, 197.122 265.388, 197.500 266 M 232.200 270.200 C 230.851 271.549, 230.618 275.900, 231.747 278.668 C 232.308 280.045, 232.618 279.513, 232.997 276.524 C 233.353 273.708, 234.154 272.224, 235.744 271.435 C 236.978 270.823, 237.691 270.024, 237.327 269.661 C 236.271 268.605, 233.504 268.896, 232.200 270.200 M 245.833 274.319 C 246.144 279.324, 245.949 279.865, 242.911 282.421 C 240.032 284.844, 238.980 285.122, 233.805 284.830 C 228.926 284.555, 228.238 284.708, 229.668 285.750 C 230.611 286.438, 233.806 287, 236.768 287 C 241.387 287, 242.570 286.584, 245.077 284.077 C 247.419 281.735, 248 280.282, 248 276.768 C 248 274.356, 247.438 271.611, 246.750 270.669 C 245.704 269.235, 245.554 269.830, 245.833 274.319 M 271.200 270.200 C 269.851 271.549, 269.618 275.900, 270.747 278.668 C 271.308 280.045, 271.618 279.513, 271.997 276.524 C 272.353 273.708, 273.154 272.224, 274.744 271.435 C 275.978 270.823, 276.691 270.024, 276.327 269.661 C 275.271 268.605, 272.504 268.896, 271.200 270.200 M 284.833 274.319 C 285.144 279.324, 284.949 279.865, 281.911 282.421 C 279.032 284.844, 277.980 285.122, 272.805 284.830 C 267.926 284.555, 267.238 284.708, 268.668 285.750 C 269.611 286.438, 272.806 287, 275.768 287 C 280.387 287, 281.570 286.584, 284.077 284.077 C 286.419 281.735, 287 280.282, 287 276.768 C 287 274.356, 286.438 271.611, 285.750 270.669 C 284.704 269.235, 284.554 269.830, 284.833 274.319 M 221 283 C 221 284.893, 220.333 285, 208.500 285 C 200.833 285, 196 285.387, 196 286 C 196 286.615, 201 287, 209 287 L 222 287 222 284 C 222 282.350, 221.775 281, 221.500 281 C 221.225 281, 221 281.900, 221 283" stroke="none" fill="#a1a1a1" fill-rule="evenodd"/><path d="M 0 250.002 L 0 500.004 250.250 499.752 L 500.500 499.500 500.752 249.750 L 501.004 0 250.502 0 L 0 0 0 250.002 M 0.492 250.500 C 0.492 388, 0.608 444.101, 0.750 375.170 C 0.892 306.238, 0.892 193.738, 0.750 125.170 C 0.608 56.601, 0.492 113, 0.492 250.500 M 258 272 L 258 285 255 285 C 253.350 285, 252 285.450, 252 286 C 252 286.550, 253.800 287, 256 287 L 260 287 260 273 C 260 264.333, 259.619 259, 259 259 C 258.385 259, 258 264, 258 272 M 214.207 269.175 C 208.014 278.103, 207.346 279.617, 210.107 278.466 C 211.960 277.694, 222 263.348, 222 261.472 C 222 258.642, 220.453 260.171, 214.207 269.175 M 197.500 266 C 197.840 266.550, 199.640 267, 201.500 267 C 203.360 267, 205.160 266.550, 205.500 266 C 205.878 265.388, 204.324 265, 201.500 265 C 198.676 265, 197.122 265.388, 197.500 266 M 232.200 270.200 C 230.851 271.549, 230.618 275.900, 231.747 278.668 C 232.308 280.045, 232.618 279.513, 232.997 276.524 C 233.353 273.708, 234.154 272.224, 235.744 271.435 C 236.978 270.823, 237.691 270.024, 237.327 269.661 C 236.271 268.605, 233.504 268.896, 232.200 270.200 M 245.833 274.319 C 246.144 279.324, 245.949 279.865, 242.911 282.421 C 240.032 284.844, 238.980 285.122, 233.805 284.830 C 228.926 284.555, 228.238 284.708, 229.668 285.750 C 230.611 286.438, 233.806 287, 236.768 287 C 241.387 287, 242.570 286.584, 245.077 284.077 C 247.419 281.735, 248 280.282, 248 276.768 C 248 274.356, 247.438 271.611, 246.750 270.669 C 245.704 269.235, 245.554 269.830, 245.833 274.319 M 271.200 270.200 C 269.851 271.549, 269.618 275.900, 270.747 278.668 C 271.308 280.045, 271.618 279.513, 271.997 276.524 C 272.353 273.708, 273.154 272.224, 274.744 271.435 C 275.978 270.823, 276.691 270.024, 276.327 269.661 C 275.271 268.605, 272.504 268.896, 271.200 270.200 M 284.833 274.319 C 285.144 279.324, 284.949 279.865, 281.911 282.421 C 279.032 284.844, 277.980 285.122, 272.805 284.830 C 267.926 284.555, 267.238 284.708, 268.668 285.750 C 269.611 286.438, 272.806 287, 275.768 287 C 280.387 287, 281.570 286.584, 284.077 284.077 C 286.419 281.735, 287 280.282, 287 276.768 C 287 274.356, 286.438 271.611, 285.750 270.669 C 284.704 269.235, 284.554 269.830, 284.833 274.319 M 221 283 C 221 284.893, 220.333 285, 208.500 285 C 200.833 285, 196 285.387, 196 286 C 196 286.615, 201 287, 209 287 L 222 287 222 284 C 222 282.350, 221.775 281, 221.500 281 C 221.225 281, 221 281.900, 221 283" stroke="none" fill="#fbfbfb" fill-rule="evenodd"/></svg>